{"title":"Air.Crash.Investigation.S13E02.HDTV.XviD-AFG.[P2PDL]","uid":9392495,"size":388743432,"categoryP":"video","categoryS":"tv_shows","magnet":"?xt=urn:btih:8494090b4421a48c6307546940723b3909ffadeb&amp;dn=Air.Crash.Investigation.S13E02.HDTV.XviD-AFG.%5BP2PDL%5D&amp;tr=udp%3A%2F%2Ftracker.openbittorrent.com%3A80&amp;tr=udp%3A%2F%2Fopen.demonii.com%3A1337&amp;tr=udp%3A%2F%2Ftracker.coppersurfer.tk%3A6969&amp;tr=udp%3A%2F%2Fexodus.desync.com%3A6969","seeders":7,"leechers":0,"uploader":"ValidusVyto","files":3,"time":1387910560,"description":"Air.Crash.Investigation.S13E02.HDTV.XviD-AFG\n\nInfo:\nGeneral\nComplete name                            : Air.Crash.Investigation.S13E02.HDTV.XviD-AFG.[P2PDL]/Air.Crash.Investigation.S13E02.HDTV.XviD-AFG.avi\nFormat                                   : AVI\nFormat/Info                              : Audio Video Interleave\nFile size                                : 371 MiB\nDuration                                 : 43mn 58s\nOverall bit rate mode                    : Variable\nOverall bit rate                         : 1 179 Kbps\n\nVideo\nID                                       : 0\nFormat                                   : MPEG-4 Visual\nFormat profile                           : Advanced Simple@L5\nFormat settings, BVOP                    : 2\nFormat settings, QPel                    : No\nFormat settings, GMC                     : No warppoints\nFormat settings, Matrix                  : Default (H.263)\nCodec ID                                 : XVID\nCodec ID/Hint                            : XviD\nDuration                                 : 43mn 58s\nBit rate                                 : 1 038 Kbps\nWidth                                    : 640 pixels\nHeight                                   : 360 pixels\nDisplay aspect ratio                     : 16:9\nFrame rate                               : 25.000 fps\nColor space                              : YUV\nChroma subsampling                       : 4:2:0\nBit depth                                : 8 bits\nScan type                                : Progressive\nCompression mode                         : Lossy\nBits/(Pixel*Frame)                       : 0.180\nStream size                              : 326 MiB (88%)\nWriting library                          : XviD 64\n\nAudio\nID                                       : 1\nFormat                                   : MPEG Audio\nFormat version                           : Version 1\nFormat profile                           : Layer 3\nMode                                     : Joint stereo\nMode extension                           : MS Stereo\nCodec ID                                 : 55\nCodec ID/Hint                            : MP3\nDuration                                 : 43mn 58s\nBit rate mode                            : Variable\nBit rate                                 : 128 Kbps\nChannel(s)                               : 2 channels\nSampling rate                            : 48.0 KHz\nCompression mode                         : Lossy\nStream size                              : 40.3 MiB (11%)\nAlignment                                : Aligned on interleaves\nInterleave, duration                     : 24 ms (0.60 video frame)\nInterleave, preload duration             : 178 ms\nTitle                                    : Air.Crash.Investigation.S13E02.HDTV.XviD-AFG_360p.audio\n\n\n\n\nScreenshots: &lt;a href=&quot;\nhttp://beeimg.com/images/x90343335131.jpg&quot; rel=&quot;nofollow&quot; target=&quot;_NEW&quot;&gt;\nhttp://beeimg.com/images/x90343335131.jpg&lt;/a&gt; &lt;a href=&quot;\nhttp://beeimg.com/images/q23993465762.jpg&quot; rel=&quot;nofollow&quot; target=&quot;_NEW&quot;&gt;\nhttp://beeimg.com/images/q23993465762.jpg&lt;/a&gt;","torrent":{"xt":"urn:btih:8494090b4421a48c6307546940723b3909ffadeb","amp;dn":"Air.Crash.Investigation.S13E02.HDTV.XviD-AFG.%5BP2PDL%5D","amp;tr":["udp%3A%2F%2Ftracker.openbittorrent.com%3A80","udp%3A%2F%2Fopen.demonii.com%3A1337","udp%3A%2F%2Ftracker.coppersurfer.tk%3A6969","udp%3A%2F%2Fexodus.desync.com%3A6969"],"infoHash":"8494090b4421a48c6307546940723b3909ffadeb","infoHashBuffer":{"type":"Buffer","data":[132,148,9,11,68,33,164,140,99,7,84,105,64,114,59,57,9,255,173,235]},"announce":[],"urlList":[]}}